<svg xmlns="http://www.w3.org/2000/svg" width="1367" height="1364"><path fill="#EBEBE9" d="M0 0h1367v1364H0z" id="svg-layer-0" style="pointer-events: all;"/><path fill="#5F7761" d="M807.083 123.993a290 290 0 0 0 5.788 2.94c34.21 17.242 58.517 49.372 70.633 85.262 5.778 18.106 8.304 35.971 8.691 54.938l.049 2.175c.078 3.57.136 7.137.152 10.707.143 12.245 2.14 24.27 8.542 34.923l1.153 1.978c6.979 11.55 16.199 21.441 25.433 31.202 6.927 7.387 14.338 15.78 14.914 26.32-.24 5.641-2.001 10.016-5.922 14.113-5.086 4.174-11.127 6.88-17.056 9.646-3.466 1.645-5.288 2.545-7.46 5.803-.568 6.229.508 9.956 3.438 15.375 3.486 6.961 6.032 13.128 3.5 20.875-2.4 3.406-4.794 6-7.938 8.75h-3l1.813 3.063c5.327 9.417 5.327 9.417 4.96 13.406-.872 2.856-1.926 4.241-3.96 6.406-.626.68-1.25 1.361-1.895 2.063L907 476a442 442 0 0 0-3.375 3.875l-1.46 1.68c-3.496 4.34-2.343 10.153-2.165 15.445l.5 3.375c1.485 10.766 1.187 20.123-4.5 29.625-7.677 9.985-17.326 13.13-29.462 14.775-12.058 1.068-23.843-.29-35.788-1.775-19.636-2.418-37.125-3.89-54.75 7l-2.176.934c-2.329 1.361-2.76 2.62-3.824 5.066a220 220 0 0 1-2.812 4.063c-4.71 7.013-7.741 14.24-9.938 22.375-1.68 5.092-1.68 5.092-3.902 6.925-2.406 1.049-4.852 1.823-7.348 2.637-17.016 6.937-32.179 16.943-46 29l-2.418 2.05c-4.303 3.713-8.188 7.568-11.852 11.91-1.772 2.09-3.622 4.09-5.48 6.102C661.073 662.72 649.628 687.647 641 715c-3 0-3 0-4.667-1.294l-1.81-1.82-2.018-2.016-2.13-2.183-2.19-2.22c-4.626-4.736-8.964-9.56-13.048-14.772a149 149 0 0 0-4.805-5.765C589.006 660.594 579.196 634.403 581 602c2.419-22.33 16.425-41.082 33.293-54.875a747 747 0 0 1 4.812-3.836c9.413-7.444 18.725-14.942 27.528-23.105a200 200 0 0 1 6.242-5.496c3.71-3.229 7.203-6.658 10.688-10.125l1.606-1.594c3.504-3.517 6.79-7.179 10.039-10.932 2.964-3.37 6.074-6.599 9.167-9.85 5.088-5.382 9.92-10.835 14.531-16.632 2.203-2.688 4.53-5.208 6.907-7.743 5.713-6.217 10.66-12.934 15.65-19.736a439 439 0 0 1 4.58-6.06C740.608 412.994 752.73 392.634 763 371l1.316-2.77c2.808-6.413 6.297-15.71 3.856-22.55C767 344 767 344 764.875 343c-5.577 0-9.256 2.515-13.227 6.156-6.019 6.344-10.88 13.3-15.742 20.54-12.781 19.023-26.769 36.417-42.906 52.679l-1.663 1.687q-2.376 2.398-4.774 4.774l-2.81 2.798c-3.53 3.034-6.73 5.458-11.503 5.241C670 436 670 436 668 433c-.29-8.138 4.059-12.887 9-19l2.04-2.55c2.812-3.472 5.67-6.904 8.532-10.333 25.044-30.037 45.614-61.862 62.85-96.929a539 539 0 0 1 4.144-8.192C759.92 285.63 764.537 276 763 264c-2-3-2-3-5.187-3.812-5.896-.29-9.988.877-14.625 4.5-9.47 8.905-15.321 21.25-21.379 32.556-12.754 23.62-28.091 45.31-45.26 65.9a759 759 0 0 0-3.023 3.647c-6.023 7.31-12.355 14.232-19.026 20.959l-2.07 2.098-1.961 1.949-1.737 1.73c-2.697 2.294-4.721 3.498-8.294 3.41C638 396 638 396 636 394c-1.504-4.513.183-7.733 2-12 1.489-2.701 3.197-5.188 5-7.687l1.47-2.085c4.47-6.279 9.21-12.331 14.026-18.347 21.853-27.33 40.405-56.278 57.689-86.688 1.794-3.155 3.597-6.305 5.4-9.455 19-33.26 19-33.26 17.415-43.738-1.975-3.122-3.332-4.603-6.984-5.473-8.73-.603-15.604 4.024-22.016 9.473-13.006 12.378-21.703 28.288-30.242 43.895C660.69 296.722 637.285 329.115 610 358c-.594.67-1.189 1.34-1.8 2.031-2.302 2.521-4.012 3.904-7.263 5.031-3.53-.075-5.164-.923-7.937-3.062-1.56-3.12-1.684-5.645-1-9 3.474-7.817 8.803-14.554 13.964-21.311C675.88 239.88 675.88 239.88 673 212c-1.5-2.687-1.5-2.687-4-4-8.354-1.492-15.066 2.837-21.937 7.242-10.464 8.1-17.988 21.292-25.31 32.157a3670 3670 0 0 1-6.284 9.28l-7.483 11.028c-9.364 13.808-18.824 27.538-28.47 41.152q-3.013 4.257-6.018 8.518l-2.998 4.246q-3.762 5.323-7.5 10.662a893 893 0 0 1-19.478 26.7c-2.102 2.783-4.19 5.577-6.278 8.371C522.955 386.461 522.955 386.461 519 390c-3.062.438-3.062.438-6 0-2.037-1.545-2.86-2.721-4-5-.233-4.796.264-8.855 1.504-13.48l.986-3.739.53-1.961c.739-2.735 1.459-5.474 2.18-8.214l1.123-4.244c1.932-7.293 3.783-14.605 5.615-21.925l.89-3.526.824-3.29.719-2.861c3.446-15.115 3.718-32.248-4.621-45.76-3.73-4.691-8.923-6.877-14.75-7.75l-3-.25-.328 3.363c-.646 5.095-1.972 9.906-3.422 14.825l-.91 3.094c-6.46 21.455-14.348 42.491-22.207 63.466-25.5 68.068-37.054 138.066-6.149 207.065C479.774 585.246 494.296 609.059 513 630l1.387 1.558c8.722 9.754 17.66 19.054 27.902 27.231 2.618 2.135 5.104 4.359 7.586 6.649 4.186 3.815 8.58 7.277 13.093 10.688 5.13 3.899 10.027 8.042 14.923 12.23 2.791 2.385 5.63 4.709 8.484 7.019 14.745 12.023 29.325 24.477 42.004 38.695a286 286 0 0 0 5.21 5.672c5.487 5.833 10.092 11.851 14.5 18.508 1.54 2.216 2.988 3.9 4.911 5.75l.18-1.79c4.718-45.293 18.587-91.11 55.229-120.894 39.422-31.05 87.794-38.255 136.024-45.088 48.47-6.891 48.47-6.891 69.915-15.408C917 580 917 580 920 581c1.443 38.725-8.57 80.068-27 114l-1.066 2.006C874.25 730.228 848.557 756.82 815 774l-1.916.995C790.19 786.762 765.327 791.825 740 795l-3.14.406c-8.58.948-17.242.68-25.86.594.53-5.498 1.55-10.337 3.563-15.5l.797-2.078c3.044-7.73 6.735-15.097 10.64-22.422l1.075-2.032C735.08 738.934 744.79 725.787 756 713l2.168-2.508C768.179 699.11 778.905 688.166 791 679l2.094-1.59C803.126 669.829 813.295 662.6 824 656c-29.681 10.463-57.432 26.607-80.637 47.863-2.057 1.86-4.162 3.623-6.3 5.387C698.719 742.915 679.315 797.424 676 847c-.241 5.818-.388 11.64-.518 17.46l-.103 3.47-.076 3.1c-.422 4.138-1.15 7.748-4.05 10.822-2.904 1.48-5.066 1.547-8.316 1.523l-3.16.023c-3.193-.458-3.809-.943-5.777-3.398-.628-1.92-.628-1.92-.992-4.113l-.44-2.5-.443-2.7q-.511-2.862-1.031-5.722l-.54-2.985c-6.66-35.785-19.773-62.241-45.554-87.98l-1.527-1.633c-4.852-5.134-10.385-9.325-15.961-13.629-2.887-2.232-5.673-4.557-8.45-6.926-6.347-5.237-13.168-9.783-19.944-14.442-9.524-6.58-18.72-13.544-27.869-20.632a735 735 0 0 0-5.991-4.578C510.274 700.81 496.154 688.432 483 675l-2.5-2.5-2.5-2.5-1.625-1.484C468.93 661.506 463.072 653.183 457 645l-1.663-2.214C425.58 603.126 407.114 558.196 401 509l-.315-2.48c-3.002-27.548-1.468-56.295 3.315-83.52l.503-3.034C416.356 349.818 449.769 278.78 492 222q1.249-1.697 2.496-3.395c7.81-10.544 16.159-20.48 25.092-30.08 1.412-1.525 2.81-3.06 4.205-4.6 8.28-9.13 16.744-18.006 26.207-25.925l1.6-1.37c10.51-8.986 21.531-16.553 33.4-23.63l2.062-1.25c65.7-39.652 151.986-43.857 220.02-7.757M911.38 941.823l2.822-.039 3.071-.022 3.136-.025q3.291-.02 6.582-.032c3.363-.017 6.725-.061 10.087-.105q3.191-.015 6.383-.026l3.059-.053 2.84.009 2.502-.018C954 942 954 942 955.7 943.85c1.642 2.716 2.945 5.49 4.241 8.388l.847 1.88q.913 2.025 1.819 4.055c1.663 3.724 3.344 7.441 5.022 11.159l1.072 2.38c3.67 8.131 7.41 16.23 11.159 24.325a5552 5552 0 0 1 17.765 38.713l.919 2.025 1.835 4.046.918 2.023.917 2.021c10.276 22.646 20.66 45.242 31.049 67.837l1.962 4.273c1.52 3.309 3.048 6.614 4.598 9.909l1.67 3.561 1.471 3.118C1044 1136 1044 1136 1044 1138l-50-1c-9.263-18.527-9.263-18.527-13-27.875l-1.191-2.91C977 1099.277 977 1099.277 977 1097h-92l-3 9a310 310 0 0 1-3.102 7.406l-.854 1.972q-.882 2.033-1.77 4.063-1.36 3.12-2.712 6.246c-4.42 10.172-4.42 10.172-5.562 11.313a70 70 0 0 1-4.52.114h-2.912l-3.166-.016-3.224-.005c-3.413-.005-6.827-.018-10.24-.03q-3.462-.008-6.924-.014-8.508-.017-17.014-.049a1000 1000 0 0 1 17.875-41.312l1.051-2.287 2.104-4.573 1.04-2.262 1.033-2.244c4.462-9.712 8.779-19.488 13.1-29.263 3.403-7.692 6.825-15.377 10.243-23.063l6.507-14.64 2.572-5.788c.415-.933.83-1.865 1.256-2.826l4.578-10.3 7.091-15.953a8491 8491 0 0 0 8.284-18.674l2.59-5.856q1.572-3.55 3.137-7.106l1.379-3.115 1.199-2.717c1.637-3.442 2.645-3.154 6.341-3.198M217.808 941.873l3.825-.009 4.234.007 4.43-.006q6.03-.005 12.06 0c4.2.003 8.397 0 12.596 0q10.577-.004 21.154.005 12.248.006 24.494-.002 10.496-.007 20.99-.003 6.278.003 12.554-.001 5.9-.004 11.8.005 2.171 0 4.343-.002 2.952-.001 5.904.006l3.345.001C362 942 362 942 363 943v36H258v41h93v35c-1.856 1.856-4.494 1.12-6.963 1.124l-2.596-.01h-2.72c-2.98 0-5.962-.009-8.944-.016l-6.183-.005q-8.156-.006-16.31-.024-9.775-.016-19.551-.023c-9.911-.01-19.822-.029-29.733-.046v44h109v38c-30.743.065-61.479-.169-92.22-.445q-10.3-.092-20.6-.182-21.09-.184-42.18-.373-.231-37.915-.443-75.832-.098-17.603-.205-35.207-.094-15.338-.177-30.675-.044-8.126-.096-16.252a9365 9365 0 0 1-.086-15.279q-.014-2.812-.035-5.625-.026-3.822-.04-7.645l-.02-2.278A144 144 0 0 1 211 943c1.782-1.782 4.4-1.126 6.808-1.127M740 942l2.333.504C753.767 945.09 763.736 949.397 774 955l2 1c-.601 4.679-1.897 8.587-3.723 12.93l-.802 1.925c-.84 2.009-1.689 4.014-2.538 6.02l-1.72 4.11q-2.1 5.01-4.217 10.015c-4.74 0-7.706-1.662-11.812-3.75-7.923-3.87-15.528-6.432-24.188-8.25l-3.191-.68c-15.925-2.91-33.757-3.285-47.809 5.68-3.902 3.997-5.151 7.292-5.312 12.813.078 4.889.894 7.512 4.312 11.187 4.453 3.89 9.675 5.691 15.254 7.41l2.12.657c6.981 2.117 14.048 3.75 21.166 5.329 50.658 11.304 50.658 11.304 64.835 30.917 8.02 12.972 9.063 28.362 5.91 43.007-4.778 15.71-15.069 26.904-29.285 34.68-32.85 16.445-71.1 14.452-105.258 3.35-10.865-3.665-22.077-7.554-30.742-15.35-1.339-4.016.13-6.135 1.86-9.75.304-.655.61-1.309.924-1.983q.972-2.076 1.957-4.146a747 747 0 0 0 2.97-6.34q.947-2.016 1.898-4.031l.89-1.913c1.482-3.089 2.853-5.62 5.501-7.837l1.984 1.32c24.575 16.036 54.101 24.405 83.453 18.555 6.641-1.88 12.027-5.031 16.625-10.187 1.901-5.45 1.567-10-.437-15.376-8.17-12.061-28.277-14.262-41.367-17.48l-2.356-.58c-3.899-.96-7.8-1.907-11.708-2.83-20.718-4.967-42.195-11.999-54.014-31.164-7.199-13.778-6.289-28.914-1.83-43.375 5.362-15.527 17.343-25.254 31.525-32.696 6.861-3.257 13.723-5.517 21.125-7.187l3.008-.684c19.112-3.472 40.063-2.41 58.992 1.684M428 942h47v157h99c4.007 12.02 1 25.329 1 38H428zM1093 942h46v196l-47-1q-.035-37.915-.052-75.832-.007-17.603-.023-35.207-.015-15.338-.02-30.675 0-8.126-.01-16.252-.01-7.64-.008-15.279 0-2.812-.006-5.625-.006-3.822-.001-7.645l-.01-2.278c.016-5.093.016-5.093 1.13-6.207" id="svg-layer-1" style="pointer-events: all;"/><path fill="#AD7C7B" d="M592.129 804.29c7.855 5.574 13.567 12.197 15.871 21.71 1.138 10.113.072 18.352-5.918 26.66-5.67 6.814-12.255 11.628-21.082 13.34-9.591.87-17.834-.291-25.77-5.988-6.29-5.334-10.648-10.744-12.23-19.012-.783-11.63-.347-21.027 7.375-30.375 10.777-11.3 28.092-14.608 41.754-6.336M517.188 749.75c7.034 5.627 10.828 11.444 12.128 20.438.43 7.762-2.228 15.528-6.941 21.687-5.686 6.018-13.479 8.741-21.562 9.375-8.489-.557-15.723-3.187-21.813-9.25-6.217-8.165-6.88-15.975-6-26 2.007-6.833 6.173-12.87 12-17 11.25-5.744 21.24-5.26 32.188.75" id="svg-layer-2" style="pointer-events: all;"/><path fill="#ECECEA" d="M930 988c2.543 3.102 4.056 6.166 5.574 9.871l1.501 3.629.795 1.94c1.414 3.454 2.846 6.9 4.278 10.345l.92 2.216c4.167 10.007 8.506 19.94 12.835 29.877l2.084 4.788q.95 2.187 1.906 4.371c2.107 4.85 2.107 4.85 2.107 5.963l-61 1-1-2a123 123 0 0 1 2.945-7.602l.975-2.354c1.061-2.56 2.133-5.114 3.205-7.669l2.192-5.276a7007 7007 0 0 1 3.357-8.082q3.673-8.826 7.252-17.689l.913-2.26q1.724-4.27 3.442-8.54 1.168-2.902 2.34-5.801l1.326-3.295C929 989 929 989 930 988" id="svg-layer-3" style="pointer-events: all;"/><path fill="#5F7761" d="M1143.996 1189.672c5.627 3.73 8.95 8.951 11.004 15.328 1.746 8.746 1.038 16.105-3.687 23.75-2.918 4.113-6.046 6.604-10.313 9.25 2 2 2 2 4.813 2.313 3.51-.345 5.336-1.3 8.187-3.313l4 6c-6.515 6.877-6.515 6.877-11.367 7.117-6.513-.629-10.3-2.15-15.27-6.574-3.02-2.681-5.642-4.795-9.363-6.418-6.28-2.964-10.518-8.094-12.937-14.562-2.229-8.083-1.535-15.917 1.937-23.563 7.65-11.757 20.188-15.835 32.996-9.328M614.438 1188.688c6.91 4.106 11.144 9.933 13.183 17.667 1.038 7.245.47 15.448-3.254 21.864-3.814 4.969-8.357 8.874-14.367 10.781-7.353.872-13.974.584-20-4-6.71-6.175-9.406-13.206-10-22.223 0-6.91 1.561-12.379 6-17.777 7.794-7.739 17.844-11.287 28.438-6.312M1045 1188c25 0 25 0 33 5 3.954 5.832 5.118 11.003 4 18-1.542 4.514-2.992 7.328-7 10 1.666 6.164 4.878 11.483 8 17-3.8.548-7.222.774-11 0-3.353-3.13-5.234-7.004-6.863-11.25-1.137-1.75-1.137-1.75-3.301-2.36l-2.461-.14-4.375-.25v14h-10zM947.75 1187.438c2.207.032 2.207.032 4.25.562 1.322 1.46 1.322 1.46 2.434 3.422l1.268 2.2L957 1196l1.333 2.39a474 474 0 0 1 3.98 7.422l1.376 2.561 1.3 2.459 1.172 2.21C967 1215 967 1215 967 1218c2.966-2.562 4.39-5.45 6.102-8.945l1.734-3.512 1.789-3.668q1.766-3.6 3.54-7.195l1.576-3.227C983 1189 983 1189 984 1188h9v50h-10l-1-27-11 22h-5l-12-22-1 27h-10q-.037-10.44-.055-20.88-.008-3.555-.02-7.11a4531 4531 0 0 1-.023-10.194l-.015-3.232v-2.972l-.007-2.632c.215-3.548 1.16-2.986 4.87-3.543" id="svg-layer-4" style="pointer-events: all;"/><path fill="#AD7C7B" d="M459 690c4.875 4.134 7.39 8.677 8.285 15.023.448 6.552-1.598 11.611-5.285 16.977-4.1 4.558-9.204 6.047-15.152 6.914-5.834.176-10.625-1.68-15.66-4.476-4.273-4.76-7.41-10.461-7.813-16.938.441-6.388 2.992-12.185 7.82-16.43 9.207-6.35 17.95-6.606 27.805-1.07" id="svg-layer-5" style="pointer-events: all;"/><path fill="#5F7761" d="M388 1188c9 0 9 0 11.969 2.824a98 98 0 0 1 2.531 3.863l1.372 2.034a282 282 0 0 1 2.767 4.191c1.688 2.59 3.456 5.12 5.235 7.648 1.726 2.467 3.423 4.956 5.126 7.44l1-28h10v50c-9 0-9 0-10.996-1.386l-1.227-1.946-1.443-2.174-1.397-2.306a2751 2751 0 0 0-2.847-4.395L407 1221l-8-11-1 28h-10zM845 1188c10 0 10 0 12.341 1.709l1.522 2.385 1.748 2.625 1.702 2.781c.58.887 1.16 1.774 1.76 2.688 2.191 3.368 4.302 6.781 6.385 10.218l1.335 2.188 1.153 1.927C874 1216 874 1216 876 1217l-1-3c-.094-1.907-.13-3.817-.133-5.727l-.004-3.375.012-3.523-.012-3.547.004-3.367.004-3.1C875 1189 875 1189 876 1188h9v50c-8 0-8 0-10.073-1.617l-1.501-2.258-1.72-2.492L870 1229l-3.457-5a1951 1951 0 0 1-5.088-7.598l-1.662-2.465-1.484-2.222C857 1210 857 1210 855 1209v29h-10zM132.504 1187.902l3.059.035 3.066.028L141 1188q3.611 9.473 7.208 18.951 1.225 3.225 2.453 6.446 1.765 4.634 3.523 9.271l1.11 2.905 1.032 2.729.908 2.388c.802 2.418 1.317 4.804 1.766 7.31h-10l-1.562-4.437c-1.133-2.493-1.133-2.493-2.438-4.563-2.866-1.037-4.056-1.121-7-1l-3.344-.031A434 434 0 0 0 125 1228l-3 10h-11c1.92-6.615 4.05-13.052 6.54-19.473l.988-2.573q1.023-2.66 2.052-5.316c1.054-2.723 2.1-5.449 3.147-8.175q.998-2.593 2-5.186l.95-2.474c2.63-6.776 2.63-6.776 5.827-6.9M356.285 1187.902l2.777.035 2.786.028L364 1188c2.911 5.631 5.405 11.29 7.672 17.207l.992 2.567q1.026 2.662 2.046 5.327c1.045 2.724 2.099 5.443 3.153 8.163q1 2.596 1.996 5.193l.957 2.462.87 2.287c.255.662.51 1.324.771 2.006C383 1235 383 1235 383 1238h-11l-4-10h-18l-4 10h-11c1.92-6.615 4.05-13.052 6.54-19.473l.988-2.573q1.023-2.66 2.052-5.316c1.054-2.723 2.1-5.449 3.147-8.175q.999-2.593 2-5.186l.95-2.474c2.63-6.773 2.63-6.773 5.608-6.9M714 1188h11q2.857 7.304 5.707 14.612l1.934 4.951c3.948 10.092 7.79 20.204 11.359 30.437h-11l-4-10h-19l-4 10h-11c2.468-7.718 5.386-15.22 8.375-22.75l2.836-7.172 1.393-3.525A1973 1973 0 0 0 714 1188M786 1188h33v9h-23v11l4.34-.035 5.597-.027 2.866-.026 2.724-.01 2.524-.016C816 1208 816 1208 817 1209v8l-20 1-1 11h24v9h-34zM1163 1188h10l.06 2.934c.076 3.612.165 7.224.257 10.836q.058 2.339.105 4.678c.046 2.25.104 4.498.164 6.747l.035 2.094c.128 4.242.846 7.757 2.379 11.711 1.556.305 3.12.568 4.688.813l2.636.457c2.676-.27 2.676-.27 5.299-2.278 2.956-3.721 3.108-6.574 3.084-11.137l.046-2.332c.043-2.446.052-4.89.06-7.335q.034-2.496.076-4.99c.062-4.067.095-8.132.111-12.198h10q.149 7.443.22 14.886.03 2.528.082 5.054c.38 18.855.38 18.855-4.302 25.06-5.56 5.205-10.755 6.377-18.145 6.27-4.301-.407-7.497-1.528-10.855-4.27-5.253-6.393-6.154-11.922-6.098-20.047l.005-2.337c.005-2.455.018-4.91.03-7.366q.008-2.502.014-5.004.017-6.123.049-12.246M1003 1188h33v9h-23v11h20v9h-20l1 11 23 1v9h-34zM895 1188h10l.06 2.95c.076 3.625.165 7.25.257 10.874q.058 2.35.105 4.7c.046 2.256.104 4.513.164 6.769l.035 2.11c.118 3.93.493 7.117 2.379 10.597 3.71 2.473 5.61 2.385 10 2 3.185-1.76 3.833-2.499 5-6 .153-2.583.257-5.145.316-7.73l.063-2.274q.098-3.593.183-7.184l.131-4.873q.16-5.97.307-11.939h10q.112 7.015.165 14.032.022 2.381.061 4.763c.319 19.86.319 19.86-5.163 26.58L927 1235l-2.062 1.688c-4.788 3.243-10.387 2.858-15.938 2.312-5.316-1.62-9.044-4.225-12-9-2.005-4.85-2.266-9.284-2.195-14.46l.008-2.397c.011-2.506.036-5.012.062-7.518q.016-2.56.027-5.121.035-6.252.098-12.504M484 1188h32v9h-22v11h20v9h-20v12h23v9h-33zM1212 1188h33l-1 9h-22v11l4.121-.035 5.316-.027 2.721-.026 2.588-.01 2.396-.016C1241 1208 1241 1208 1242 1209v8h-20v12h23c-1.253 6.264-1.253 6.264-5 9-3.024.454-3.024.454-6.516.39l-3.415-.03-4.319-.11-13.75-.25zM190.688 1188.25c3.312 1.75 3.312 1.75 4.078 3.656.338 3.021-.686 5.298-1.766 8.094l-1.723-.656c-6.218-2.243-11.783-3.422-18.277-1.344-.312 2.813-.312 2.813 0 6 3.572 2.683 7.147 3.679 11.438 4.75 4.991 1.511 8.587 2.807 11.667 7.125 1.826 4.336 1.683 8.55.895 13.125-2.082 4.77-4.931 7.239-9.602 9.305-7.817 2.266-15.135.935-22.535-2.04C163 1235 163 1235 162.172 1233.063c-.25-2.99.76-5.298 1.828-8.062 2.485.414 4.593.776 6.813 2 4.334 1.981 8.64 2.483 13.187 1.063l2-1.063v-5c-3.77-2.038-7.503-3.55-11.562-4.937-5.077-1.822-8.805-3.539-11.813-8.188-1.074-4.941-1.027-10.183 1.352-14.75 6.559-8.463 17.066-9.038 26.71-5.875M294 1190c1.125 1.813 1.125 1.813 1 4-1.437 3.25-1.437 3.25-3 6l-3.5-1.5c-4.418-1.648-7.802-1.978-12.5-1.5-2.062 1.188-2.062 1.188-3 3-.187 2.5-.187 2.5 1 5 2.712 1.256 5.157 2.152 8 3 9.975 3.023 9.975 3.023 13.688 6.563 2.33 6.104 2.435 11.862-.188 17.874-4.876 4.998-9.382 6.793-16.375 7.063-5.71-.203-11.325-1.24-16.125-4.5-1.605-3.755-.43-6.298 1-10l1.547.656c6.41 2.455 12.612 3.166 19.453 2.344 2-2 2-2 2.125-4.625L287 1221l-2.055-.48c-15.583-3.907-15.583-3.907-20.672-9.375-2.257-3.801-2.376-7.793-2.273-12.145 1.694-5.282 4.606-7.862 9-11 7.321-2.487 16.433-2.086 23 2M573 1190c.8 1.906.8 1.906 1 4-1.437 3.25-1.437 3.25-3 6l-3.5-1.5c-4.404-1.65-7.816-1.897-12.5-1.5l-3 2c-.187 3.125-.187 3.125 0 6l3.543 1.172 4.644 1.578 2.33.766c5.308 1.822 9.898 3.692 12.795 8.796 1.197 4.677 1.192 8.334-.5 12.876-3.034 4.708-6.586 7.016-11.812 8.812-7.512.992-14.425-.153-21-4l-2-3c1.375-3.687 1.375-3.687 3-7l1.688.621c6.728 2.376 13.2 4.38 20.312 2.379v-6c-3.925-2.18-7.759-3.57-12.062-4.875-4.97-1.61-7.82-2.932-10.938-7.125-1.538-4.614-1.922-9.383-.281-14.04 2.068-3.918 4.266-6.153 8.281-7.96 7.726-2.344 15.88-1.692 23 2M231.813 1189l3.187 2c-.557 3.344-1.352 6.033-3 9l-3.5-1.5c-4.404-1.65-7.816-1.897-12.5-1.5-3 2-3 2-3.5 4.438.5 2.562.5 2.562 2.66 4.105 2.9 1.487 5.653 2.423 8.778 3.332 5.11 1.642 8.37 3.233 12.062 7.125 1.79 5.37 1.884 10.197-.625 15.313-3.787 4.284-7.92 7.336-13.723 7.925-6.566.18-13.147-.285-18.652-4.238-1.353-4.014-.833-6.226 1-10l2.563.875L210 1227l3.375 1.188c4.474 1.002 7.166.87 11.625-.188 2.018-2.522 2-3.751 2-7l-2.09-.516c-17.234-4.444-17.234-4.444-21.91-10.484-1.751-5.254-1.983-10.748.5-15.812 6.048-9 19.19-9.725 28.313-5.188M469.563 1188.813c2.525 1.417 4.54 2.989 6.437 5.187-.097 3.004-1.018 4.02-3.062 6.25L471 1202l-1.562-.812L467 1200l-3.375-1.687c-4.004-1.45-5.628-1.674-9.625-.313-4.623 3.112-6.9 5.502-8 11-.498 5.48.432 9.14 3 14 3.174 3.77 5.364 4.846 10.313 5.313 4.331-.368 6.224-1.794 9.687-4.313h3c2.25 2.25 2.25 2.25 4 5-.23 2.562-.65 3.667-2.523 5.45l-1.852 1.237-1.836 1.262c-5.149 3.024-11.023 2.557-16.789 2.051-6.617-1.749-11.336-6.359-15-12-3.904-8.72-3.958-16.645-.96-25.61 2.737-6.81 6.405-10.474 13.144-13.507 6.53-2.047 13.15-2.02 19.378.93M666.563 1188.813c2.525 1.417 4.54 2.989 6.437 5.187-.097 3.004-1.018 4.02-3.062 6.25L668 1202l-1.562-.812L664 1200l-3.375-1.687c-3.967-1.437-5.653-1.608-9.625-.313-3.98 2.532-5.57 4.559-7 9-.654 6.313-1.02 12.773 3 18 4.353 3.213 7.806 3.296 12.953 2.527 2.528-.65 4.106-1.81 6.047-3.527h3c2.188 2.5 2.188 2.5 4 5-1.802 4.586-4.998 6.856-9.187 9.25-6.945 1.852-13.347 1.303-19.774-1.922-6.224-4.054-9.866-10.187-11.508-17.383-1.23-7.862-.451-15.82 4.282-22.382 7.59-9.01 18.51-13.183 29.75-7.75M300 1188h37v9h-14v41h-10v-41h-13zM749 1188h10v41h22v9h-32c-.973-2.92-1.095-4.63-1.022-7.655l.061-2.85.082-3.07.072-3.148q.116-4.982.245-9.965l.158-6.751q.195-8.28.404-16.561" id="svg-layer-6" style="pointer-events: all;"/><path fill="#ECECEA" d="M609 1197c4.275 2.623 6.416 5.248 8 10 .622 5.95.866 11.14-1.687 16.625-3.678 3.777-5.905 5.17-11.188 5.938-4.305-.155-6.59-2.014-9.68-4.86-3.907-4.604-3.865-8.853-3.765-14.719.554-5.167 2.51-8.338 6.383-11.859 4.268-2.479 7.209-2.185 11.937-1.125M1138.625 1198.063c4.071 3.321 6.006 7.274 6.727 12.472.231 6.973-1.21 11.174-6.04 16.34-3.264 2.094-5.38 2.93-9.285 2.684-4.474-1.233-7.748-4.563-10.203-8.395-2.097-5.507-1.494-12.19.363-17.664 5.131-7.077 10.38-8.7 18.438-5.437" id="svg-layer-7" style="pointer-events: all;"/><path fill="#5F7761" d="M680 1188h11v50h-11zM1091 1188h10v50h-10zM244 1188h10v50h-10z" id="svg-layer-8" style="pointer-events: all;"/><path fill="#ECECEA" d="M1055 1197c10.182-.49 10.182-.49 14.125 1.875 2.233 2.53 2.814 3.576 3.188 6.938-.386 3.936-1.547 5.421-4.313 8.187-3.015 1.005-5.042 1.103-8.187 1.063L1055 1215zM359 1200c2.146 3.22 3.359 6.444 4.625 10.063l.695 1.931c1.68 4.744 1.68 4.744 1.68 7.006h-14c1.866-6.623 4.044-12.788 7-19M719 1200c2.729 2.729 3.47 5.91 4.625 9.5l.695 2.09c1.68 5.129 1.68 5.129 1.68 7.41h-13c1.3-6.715 3.3-12.72 6-19M135 1200c2.265 3.398 3.389 6.84 4.625 10.688l.695 2.126q.845 2.592 1.68 5.186c-1 1-1 1-3.723 1.098l-3.34-.035-3.347-.028L129 1219c.617-4.284 1.612-8.214 3-12.312.35-1.049.701-2.097 1.063-3.176C134 1201 134 1201 135 1200" id="svg-layer-9" style="pointer-events: all;"/><path fill="#5F745F" d="M1032 1173c-6.996 8.558-6.996 8.558-11 11-3.812.25-3.812.25-7 0 4.257-8.909 7.837-12.265 18-11" id="svg-layer-10" style="pointer-events: all;"/></svg>