<svg version="1.1" id="Layer_1" xmlns="http://www.w3.org/2000/svg" xmlns:xlink="http://www.w3.org/1999/xlink" x="0px" y="0px"
	 width="100%" viewBox="0 0 1024 1008" enable-background="new 0 0 1024 1008" xml:space="preserve">
<path fill="#000000" opacity="1.000000" stroke="none" 
	d="
M375.464844,158.491058 
	C399.580353,128.769470 426.317139,102.844795 462.382172,88.581421 
	C515.795227,67.457062 567.756714,70.040436 617.195374,99.907249 
	C645.503296,117.008606 660.454590,143.902145 667.287109,175.687546 
	C669.010986,183.707062 670.016724,191.862625 669.253967,200.005890 
	C667.088257,223.127686 676.475647,241.457870 692.185791,257.350647 
	C696.289856,261.502411 700.242126,265.801331 703.499268,270.667023 
	C710.287109,280.806793 708.002136,289.968140 697.279846,295.614380 
	C694.628723,297.010406 691.822083,298.111603 689.174377,299.513672 
	C684.129944,302.184967 682.934082,305.329865 685.048401,310.688324 
	C686.145752,313.469452 687.677856,316.075745 688.913086,318.806458 
	C691.937317,325.491699 690.935364,331.323608 685.398071,335.937134 
	C682.898376,338.019775 682.739990,339.350098 684.490845,342.026245 
	C688.146057,347.612946 687.833191,352.161865 682.412964,356.036407 
	C674.836426,361.452332 674.514526,368.332397 675.929565,376.360931 
	C679.267944,395.302338 668.664368,408.314240 649.415833,409.263763 
	C637.372803,409.857849 625.472656,408.559113 613.597473,406.765411 
	C608.466370,405.990356 603.323914,406.021759 598.174133,406.798431 
	C580.554077,409.456024 572.740356,421.725311 568.427063,437.282928 
	C567.550964,440.442780 566.189209,442.338654 562.980774,443.648071 
	C523.697937,459.679840 498.261993,488.710754 484.152924,528.242188 
	C483.202881,530.903992 482.452606,533.636658 481.537537,536.311768 
	C481.399719,536.714722 480.866547,536.982422 480.582581,537.250183 
	C479.090790,537.346130 478.409332,536.292480 477.588257,535.503967 
	C467.343170,525.665527 457.994873,515.009033 449.729401,503.484741 
	C437.639984,486.628876 432.476074,467.945618 436.776825,447.298248 
	C439.773499,432.911438 447.174225,421.025238 458.804352,412.009064 
	C496.675049,382.650116 528.564331,347.717804 555.624207,308.294861 
	C562.611450,298.115295 568.523499,287.281525 573.397949,275.921356 
	C575.102905,271.947662 576.695862,267.857300 576.628662,263.433289 
	C576.560974,258.971405 573.603088,257.135010 569.550110,258.979156 
	C566.455200,260.387329 564.075684,262.722992 561.970459,265.361420 
	C551.783997,278.127991 543.335449,292.192322 532.669189,304.599335 
	C526.467285,311.813416 519.608459,318.384399 512.665100,324.865875 
	C511.581177,325.877686 510.277710,326.691559 508.980072,327.428436 
	C507.044067,328.527802 504.935303,329.364288 502.934174,327.700684 
	C500.780273,325.910095 500.353821,323.505402 501.191498,320.891998 
	C502.335663,317.322388 504.649597,314.442993 506.928894,311.577271 
	C518.747986,296.717468 531.248169,282.412323 541.723694,266.481537 
	C552.387146,250.264847 560.883789,232.931641 569.294373,215.533310 
	C571.316956,211.349289 572.867310,206.936340 572.714478,202.097839 
	C572.582458,197.918579 570.529907,196.051544 566.445068,196.100662 
	C562.498474,196.148132 559.464905,197.994537 556.824402,200.736435 
	C551.671631,206.087112 548.120300,212.523163 544.637695,218.968719 
	C530.535522,245.068863 513.490540,269.014801 492.746338,290.269592 
	C490.539368,292.530914 488.243073,294.731964 485.794250,296.722382 
	C483.590424,298.513672 480.938049,299.271576 478.451538,297.331146 
	C476.007355,295.423706 476.026215,292.676270 476.984314,290.019348 
	C478.123260,286.860901 480.046936,284.106537 482.046265,281.434326 
	C492.127014,267.960907 502.574890,254.746490 512.245789,240.985657 
	C527.116760,219.825409 539.661743,197.227951 551.715454,174.372040 
	C553.018250,171.901733 554.032776,169.145798 554.517700,166.404999 
	C555.609741,160.232437 551.528442,156.399734 545.357056,157.540237 
	C540.209778,158.491440 536.308411,161.662155 532.669800,165.129608 
	C523.856628,173.528152 517.728577,183.882538 512.087341,194.476242 
	C498.456573,220.073471 481.380035,243.212524 462.440002,265.049957 
	C460.155182,267.684326 457.658813,270.178955 455.003357,272.435760 
	C452.388245,274.658295 449.224152,275.315277 446.264343,273.125977 
	C443.261871,270.905151 443.258392,267.783173 444.542694,264.557098 
	C446.417969,259.846741 449.591003,255.948029 452.551880,251.930008 
	C469.177979,229.367798 484.379395,205.877182 498.357269,181.594360 
	C501.263947,176.544800 504.042694,171.392380 505.238251,165.589172 
	C506.528839,159.324753 502.562958,155.469849 496.330780,157.158295 
	C487.234863,159.622620 481.284912,166.331558 476.174835,173.549973 
	C462.505737,192.858749 449.250824,212.460220 435.765656,231.899857 
	C422.183197,251.479797 408.191864,270.764954 393.636810,289.635620 
	C391.565125,292.321533 389.153687,295.163269 385.311707,293.218323 
	C381.612335,291.345490 381.204529,287.623322 382.088593,284.056671 
	C384.810242,273.076233 387.856049,262.176453 390.614990,251.204865 
	C392.723175,242.821350 394.929810,234.434921 394.694244,225.661972 
	C394.538666,219.869720 392.792816,214.543442 390.076202,209.500107 
	C388.951477,207.412048 387.316467,205.760040 385.318878,204.462418 
	C379.612152,200.755371 377.524475,201.636337 375.769318,208.214020 
	C369.531769,231.590454 360.400787,253.973297 352.114563,276.643768 
	C346.565735,291.824890 341.291595,307.066742 339.118866,323.186615 
	C334.062408,360.701202 339.400970,396.398285 356.929840,430.237274 
	C372.334167,459.974731 394.023407,484.116638 420.287567,504.562256 
	C441.731995,521.255981 462.681305,538.555969 480.287201,559.470581 
	C482.853119,562.518738 485.295227,565.671021 487.830048,568.745911 
	C487.976074,568.923096 488.443085,568.835571 489.462097,568.950073 
	C490.875000,561.576660 492.154877,554.110474 493.748108,546.711853 
	C503.298096,502.363647 529.278381,472.874969 572.725830,458.828552 
	C594.914856,451.654938 617.886841,449.018494 640.778809,445.783813 
	C655.799133,443.661407 670.721924,441.238739 684.967529,435.708679 
	C689.489868,433.953125 690.686951,434.748383 690.570679,439.157501 
	C689.600098,475.961823 680.320190,510.103516 658.662842,540.458557 
	C637.148743,570.612793 607.447815,587.216736 571.694092,594.250549 
	C560.213989,596.509094 548.577209,597.007446 536.970764,597.934998 
	C532.475891,598.294189 532.434753,595.943787 533.451965,592.617004 
	C538.875854,574.878540 547.620300,558.874695 558.739929,544.118958 
	C570.666260,528.292603 584.970764,514.881836 600.758728,502.991333 
	C601.806091,502.202515 602.760681,501.290527 603.360779,499.487305 
	C600.191772,500.809845 596.908508,501.912140 593.871033,503.488251 
	C555.249451,523.528870 528.424133,553.783325 514.998596,595.400574 
	C509.019745,613.934326 507.018372,633.085815 507.173889,652.516418 
	C507.232849,659.883667 504.952911,662.471130 498.710236,663.099854 
	C493.318268,663.642822 490.643066,661.617493 489.702423,656.186035 
	C488.028198,646.518311 486.608276,636.812073 483.824249,627.357361 
	C477.520538,605.949890 464.294617,589.392639 447.786621,575.010254 
	C430.154663,559.648621 410.345642,547.198608 391.886963,532.934387 
	C361.602112,509.531342 337.060852,481.456848 320.011230,447.075897 
	C304.098114,414.986633 297.932373,380.829163 299.978241,345.288940 
	C301.851776,312.741760 310.691376,281.734467 322.854218,251.608154 
	C336.271606,218.374542 352.883972,186.955368 375.464844,158.491058 
z"/>
<path fill="#000000" opacity="1.000000" stroke="none" 
	d="
M158.755829,822.000000 
	C158.753891,785.172058 158.749435,748.844055 158.752045,712.516113 
	C158.752533,705.760071 158.765671,705.736938 165.305359,705.735413 
	C199.133698,705.727539 232.962479,705.816467 266.789886,705.639526 
	C271.670990,705.613892 273.798004,706.788635 273.402313,712.037354 
	C272.977600,717.671570 273.095032,723.371155 273.357544,729.024536 
	C273.550232,733.174316 271.999329,734.514587 267.891541,734.485168 
	C246.075684,734.328796 224.258209,734.389648 202.441299,734.393066 
	C195.136078,734.394226 195.134674,734.418152 195.125381,741.713135 
	C195.118805,746.879028 195.402130,752.065491 195.030457,757.204834 
	C194.674179,762.131287 196.161880,763.894714 201.390518,763.812439 
	C220.382980,763.513367 239.384354,763.818665 258.379303,763.612305 
	C262.919067,763.563110 264.699646,764.891357 264.366302,769.552551 
	C264.022491,774.360352 264.296997,779.212280 264.298920,784.044861 
	C264.302124,792.085815 264.301483,792.108398 256.471924,792.114807 
	C238.141342,792.129944 219.810730,792.125854 201.480133,792.119507 
	C195.155975,792.117371 195.117950,792.132629 195.105804,798.543213 
	C195.093826,804.875549 195.436111,811.230835 195.001755,817.533203 
	C194.638123,822.809265 196.738083,823.960022 201.618332,823.907471 
	C223.779312,823.668884 245.944046,823.776550 268.107422,823.761353 
	C276.362183,823.755676 276.353394,823.757751 276.361328,831.763184 
	C276.367096,837.595581 276.246826,843.434143 276.481873,849.257935 
	C276.609375,852.418091 275.350281,853.280762 272.412659,853.276611 
	C236.084885,853.224792 199.756943,853.223816 163.429199,853.296814 
	C159.929428,853.303833 158.703278,851.825500 158.737198,848.495605 
	C158.825470,839.831238 158.759933,831.165283 158.755829,822.000000 
z"/>
<path fill="#000000" opacity="1.000000" stroke="none" 
	d="
M770.977051,853.220276 
	C763.652893,853.223877 756.820801,853.107788 749.996155,853.283142 
	C746.735474,853.366882 744.717163,852.291260 743.432739,849.196533 
	C740.498535,842.127258 737.098694,835.244568 734.342285,828.110657 
	C732.812988,824.152832 730.896606,822.698547 726.369141,822.740051 
	C707.391479,822.913757 688.398254,823.543091 669.428650,822.411804 
	C666.113159,822.214172 664.237305,823.376221 662.976257,826.509644 
	C659.869446,834.229187 656.431091,841.814758 653.199829,849.485229 
	C652.211243,851.831909 650.944702,853.307983 648.068848,853.277710 
	C638.243164,853.173950 628.415466,853.280457 618.588501,853.281128 
	C617.445679,853.281250 616.228516,853.333740 615.124573,851.743469 
	C616.818298,845.491699 620.055115,839.493713 622.788452,833.335144 
	C640.819458,792.708618 659.038452,752.165344 677.001465,711.508972 
	C678.872681,707.273682 681.002625,705.348022 685.849670,705.603943 
	C693.988281,706.033630 702.180969,706.002441 710.322632,705.596985 
	C715.069031,705.360718 717.422241,707.121643 719.331909,711.349854 
	C734.270630,744.424438 749.419373,777.404236 764.506531,810.411743 
	C770.181396,822.827209 775.876953,835.233154 781.527771,847.659546 
	C782.190674,849.117249 783.374023,850.496948 782.617004,852.585632 
	C779.047913,853.949768 775.205566,852.913513 770.977051,853.220276 
M700.531128,748.033020 
	C699.620850,746.523621 699.661072,744.474426 697.409424,743.032166 
	C690.421692,760.099182 683.503113,776.997314 676.440857,794.246338 
	C691.329468,794.246338 705.299133,794.246338 720.363892,794.246338 
	C713.595520,778.500366 707.195007,763.610291 700.531128,748.033020 
z"/>
<path fill="#000000" opacity="1.000000" stroke="none" 
	d="
M527.505310,763.443115 
	C540.854919,766.584045 553.988159,768.902527 566.311768,774.239502 
	C580.595703,780.425537 589.015747,791.053528 590.067261,806.616577 
	C591.137695,822.460449 584.855164,835.209534 571.650574,844.214844 
	C560.462097,851.845154 547.672668,855.003601 534.432800,855.907532 
	C511.313171,857.486206 489.381897,852.869080 469.074677,841.486023 
	C462.750946,837.941345 462.834106,837.677246 465.803162,830.911072 
	C468.010773,825.880127 470.226990,820.850098 472.581482,815.887085 
	C475.461304,809.816711 475.648346,809.959290 481.227661,813.475037 
	C498.785156,824.538635 517.816467,829.018494 538.470703,825.764160 
	C542.304260,825.160095 545.921448,823.899414 548.985046,821.451050 
	C555.752930,816.042419 555.486389,807.983215 548.345032,803.014648 
	C543.189270,799.427551 537.154480,797.929688 531.220947,796.310486 
	C519.668762,793.158020 507.782745,791.209106 496.491913,787.136414 
	C482.835693,782.210449 471.126404,774.977783 467.534698,759.490234 
	C463.055359,740.175476 472.050781,721.588989 490.215973,711.766174 
	C500.879852,705.999573 512.359741,703.592224 524.276062,703.164368 
	C542.462463,702.511353 560.148804,704.964355 576.722656,713.024292 
	C583.794983,716.463562 583.851624,716.734863 580.855286,723.911255 
	C578.610779,729.286926 576.152344,734.579956 574.100891,740.027222 
	C572.679565,743.801208 570.937988,744.323425 567.405579,742.333618 
	C552.568420,733.976257 536.590332,731.169556 519.716492,733.175781 
	C515.654297,733.658875 511.922119,735.008728 508.657318,737.426270 
	C501.280487,742.888916 501.577026,752.026611 509.336090,756.903748 
	C514.767151,760.317566 520.967529,761.779602 527.505310,763.443115 
z"/>
<path fill="#000000" opacity="1.000000" stroke="none" 
	d="
M392.000000,823.039429 
	C403.656189,823.034912 414.815918,823.192017 425.966949,822.950134 
	C430.770172,822.846008 432.474335,824.598083 432.239044,829.365906 
	C431.927673,835.677429 432.101929,842.018127 432.218842,848.343445 
	C432.278381,851.565125 431.322723,853.279297 427.707642,853.272095 
	C393.573181,853.204651 359.438385,853.194458 325.304016,853.286560 
	C320.742737,853.298889 320.810791,850.557434 320.814453,847.348450 
	C320.851807,814.712402 320.845764,782.076355 320.848450,749.440308 
	C320.849518,736.785522 320.971497,724.128601 320.765961,711.477051 
	C320.696503,707.202515 322.003876,705.521301 326.466949,705.662903 
	C335.283112,705.942505 344.115631,705.825928 352.938904,705.698669 
	C356.242767,705.651001 357.625153,706.577271 357.643616,710.234558 
	C357.824524,746.013428 358.344391,781.792603 357.477539,817.567871 
	C357.374786,821.808105 359.014313,823.151306 363.027008,823.086121 
	C372.515747,822.931763 382.008728,823.038330 392.000000,823.039429 
z"/>
<path fill="#000000" opacity="1.000000" stroke="none" 
	d="
M826.092651,705.726929 
	C834.076599,705.728027 841.581909,705.976074 849.061218,705.642151 
	C853.868225,705.427551 855.360107,707.075073 855.340820,711.884827 
	C855.176575,752.852905 855.235229,793.821777 855.229248,834.790466 
	C855.228577,839.286987 855.115051,843.788452 855.288025,848.278564 
	C855.425964,851.860291 854.128052,853.388123 850.380188,853.315674 
	C841.390503,853.141785 832.393555,853.162964 823.402893,853.308533 
	C819.913086,853.364990 818.629456,851.935730 818.701721,848.566406 
	C818.823120,842.906738 818.731506,837.242493 818.731567,831.580200 
	C818.731934,791.943787 818.731323,752.307434 818.734924,712.671021 
	C818.735535,705.811951 818.744202,705.811951 826.092651,705.726929 
z"/>
<path fill="#000000" opacity="1.000000" stroke="none" 
	d="
M433.649963,649.992615 
	C413.279114,649.942383 401.179138,631.816162 408.971252,613.723755 
	C414.096710,601.823059 429.245331,595.849365 441.320740,600.967041 
	C454.048645,606.361389 460.639648,620.934692 455.776886,633.117615 
	C451.853577,642.947021 444.601013,648.575500 433.649963,649.992615 
z"/>
<path fill="#000000" opacity="1.000000" stroke="none" 
	d="
M354.660309,577.273438 
	C356.740540,565.291748 364.965912,558.046997 376.235931,557.843384 
	C386.310791,557.661438 395.525208,565.180115 397.414276,575.449097 
	C398.954803,583.823730 396.286285,591.029541 389.723907,596.300598 
	C382.827759,601.839783 374.966095,602.830322 366.770172,599.125366 
	C358.664551,595.461243 354.708984,589.058228 354.609924,580.213013 
	C354.600616,579.382324 354.627289,578.551270 354.660309,577.273438 
z"/>
<path fill="#000000" opacity="1.000000" stroke="none" 
	d="
M726.136536,924.380859 
	C722.219727,923.224243 722.041626,919.558411 720.352661,917.032654 
	C719.173889,915.269714 718.640259,913.083679 716.062866,910.954346 
	C716.062866,915.533691 715.960876,919.408447 716.093384,923.275208 
	C716.211060,926.706299 715.189270,928.483948 711.302734,928.444031 
	C707.582642,928.405823 706.843811,926.602905 706.876099,923.456116 
	C706.975037,913.805969 706.908447,904.154175 706.990784,894.503723 
	C707.006836,892.615295 706.539001,890.194702 709.380127,889.760498 
	C712.075134,889.348572 714.719055,889.291016 716.237061,892.335388 
	C718.463928,896.801331 720.788208,901.218811 723.086487,905.648926 
	C723.911621,907.239563 724.415100,909.074219 727.127563,910.490723 
	C729.998230,904.774170 732.904724,899.106812 735.690735,893.380859 
	C736.861023,890.975708 738.255859,889.177917 741.256287,889.220215 
	C743.844116,889.256775 745.321411,890.137268 745.307251,892.991699 
	C745.254517,903.640747 745.260071,914.290222 745.294739,924.939392 
	C745.304688,927.984863 743.457275,928.383789 741.017212,928.363770 
	C738.554810,928.343689 736.751831,927.822205 736.788513,924.830811 
	C736.842834,920.403503 736.802551,915.975037 736.802551,911.547058 
	C736.401062,911.434692 735.999512,911.322327 735.598022,911.209961 
	C733.900391,914.320312 732.208435,917.433777 730.502747,920.539734 
	C729.568420,922.240906 729.086609,924.423950 726.136536,924.380859 
z"/>
<path fill="#000000" opacity="1.000000" stroke="none" 
	d="
M861.779419,923.678345 
	C860.228455,925.151550 858.915405,926.365234 857.431702,927.736694 
	C859.346985,930.219482 861.106140,928.997803 862.627869,927.865662 
	C864.862061,926.203430 866.195129,927.276978 867.603027,929.014160 
	C869.121521,930.887756 868.400696,932.311340 867.036194,933.818115 
	C863.020752,938.252319 855.490173,938.499512 849.864075,933.699463 
	C846.426392,930.766541 842.740784,928.418091 838.936218,926.057373 
	C830.027954,920.529663 827.775879,906.066528 834.039551,896.660034 
	C839.570435,888.353943 850.623291,886.290955 859.113220,891.979980 
	C868.699036,898.403503 870.033325,912.848083 861.779419,923.678345 
M857.800781,908.513977 
	C857.258301,901.646301 853.864685,897.442932 848.788574,897.351257 
	C844.054199,897.265686 840.296692,901.634399 839.637390,907.990784 
	C838.877258,915.319763 845.191711,921.662720 851.340149,919.539612 
	C856.042542,917.916016 857.678284,914.032715 857.800781,908.513977 
z"/>
<path fill="#000000" opacity="1.000000" stroke="none" 
	d="
M345.186584,543.323547 
	C338.280975,548.071777 331.536987,548.486633 324.907715,543.801392 
	C319.387024,539.899780 317.071381,534.356140 318.255920,527.691162 
	C319.633209,519.941711 325.453308,514.825989 333.362915,513.951172 
	C340.125824,513.203186 346.865570,517.128723 349.955963,523.615845 
	C353.019379,530.046326 351.349091,537.332825 345.186584,543.323547 
z"/>
<path fill="#000000" opacity="1.000000" stroke="none" 
	d="
M302.651917,895.314331 
	C306.081512,900.186157 309.300568,904.753967 312.519592,909.321716 
	C312.898590,909.209106 313.277557,909.096436 313.656525,908.983765 
	C313.656525,904.049011 313.755096,899.111511 313.620148,894.180359 
	C313.536987,891.141907 314.404877,889.577759 317.806274,889.585999 
	C321.076569,889.593933 322.244141,890.924927 322.220398,894.055481 
	C322.145935,903.872131 322.222076,913.689880 322.178406,923.506897 
	C322.170593,925.268616 322.547974,927.495300 320.198944,928.097107 
	C317.717072,928.732910 315.201843,928.683838 313.462708,926.232727 
	C310.093781,921.484314 306.726837,916.734436 303.340027,911.998840 
	C302.680542,911.076721 301.934784,910.216370 300.167694,909.472595 
	C300.167694,914.188660 300.071747,918.907349 300.200287,923.619873 
	C300.290985,926.945312 299.097717,928.407288 295.567780,928.414917 
	C291.955505,928.422729 290.952454,926.748108 290.982178,923.533447 
	C291.068359,914.216064 290.968292,904.896362 291.125488,895.580627 
	C291.160858,893.485474 290.112915,890.513855 293.404266,889.766968 
	C296.315826,889.106201 299.057648,889.570862 300.746918,892.542358 
	C301.238312,893.406738 301.872589,894.189880 302.651917,895.314331 
z"/>
<path fill="#000000" opacity="1.000000" stroke="none" 
	d="
M642.361328,918.981689 
	C642.360291,921.124207 642.265259,922.793762 642.376587,924.449524 
	C642.580261,927.478271 641.036194,928.652283 638.223633,928.697327 
	C635.220215,928.745544 633.631348,927.614319 633.668396,924.300781 
	C633.778259,914.487976 633.664185,904.672913 633.735596,894.859436 
	C633.749023,893.006042 632.996582,890.466187 635.728821,889.865112 
	C638.320862,889.294861 641.053040,889.069458 642.916077,891.799988 
	C645.914856,896.195312 648.940063,900.573547 652.028625,904.906006 
	C652.942566,906.188049 653.464294,907.890137 655.983215,908.729553 
	C655.983215,903.667175 656.030762,898.915039 655.966125,894.164490 
	C655.924805,891.134399 656.984558,889.621887 660.330811,889.618835 
	C663.838074,889.615662 664.428833,891.368958 664.398682,894.313171 
	C664.299744,903.959778 664.401917,913.608398 664.313477,923.255188 
	C664.296814,925.072876 665.128540,927.581421 662.270020,928.164917 
	C659.728027,928.683899 657.414124,928.398071 655.719971,925.861023 
	C651.764282,919.936890 647.630371,914.131836 642.360291,908.453003 
	C642.360291,911.802856 642.360291,915.152710 642.361328,918.981689 
z"/>
<path fill="#000000" opacity="1.000000" stroke="none" 
	d="
M441.977448,925.105164 
	C434.770874,917.391785 433.118256,907.864868 437.213715,899.071167 
	C440.887177,891.183533 449.680267,887.068420 457.977997,889.353577 
	C467.121307,891.871582 473.086273,900.785400 471.977509,910.274109 
	C470.574585,922.279846 462.853210,929.707214 452.313812,929.288147 
	C448.472107,929.135376 445.296448,927.462097 441.977448,925.105164 
M444.269318,910.198303 
	C445.537292,916.577332 448.756805,920.152832 453.442841,920.386047 
	C457.374664,920.581787 461.551697,917.108154 462.417206,912.452026 
	C463.342560,907.473755 462.458801,902.812012 458.458588,899.266968 
	C456.176636,897.244812 453.410675,896.523254 450.598419,897.926392 
	C445.939911,900.250610 444.040771,904.271973 444.269318,910.198303 
z"/>
<path fill="#000000" opacity="1.000000" stroke="none" 
	d="
M782.851562,894.207275 
	C782.726807,890.799500 784.088623,889.502869 787.053162,889.600403 
	C790.705933,889.720642 794.366699,889.580750 798.021423,889.664490 
	C809.536255,889.928345 816.571472,901.625793 810.035583,911.079102 
	C806.505371,916.185120 807.742310,919.296997 810.431580,923.317322 
	C811.233093,924.515686 812.369263,925.647888 812.150940,927.309204 
	C806.360535,929.611572 804.055420,928.934326 801.121582,924.082397 
	C800.347717,922.802673 799.584839,921.516479 798.816467,920.233459 
	C797.741943,918.439026 796.121399,917.793579 794.141113,918.219910 
	C791.947388,918.692078 792.228088,920.556030 792.014587,922.191956 
	C791.720215,924.448242 793.022034,927.428772 789.344666,928.259155 
	C784.724182,929.302551 782.851685,927.908325 782.832153,923.104736 
	C782.793518,913.631287 782.835938,904.157532 782.851562,894.207275 
M802.891663,902.796326 
	C802.646973,901.253601 802.003235,899.855042 800.632202,899.109070 
	C798.155029,897.761108 795.506042,896.406311 792.771790,898.312317 
	C791.422180,899.253235 791.468201,907.859131 792.868286,908.765930 
	C795.485474,910.461243 798.249207,909.904968 800.760193,908.305237 
	C802.435974,907.237549 803.002991,905.514221 802.891663,902.796326 
z"/>
<path fill="#000000" opacity="1.000000" stroke="none" 
	d="
M765.000610,928.356567 
	C751.848022,928.339172 751.840393,928.339172 751.821167,915.703674 
	C751.810303,908.555420 751.944885,901.404541 751.786743,894.259949 
	C751.706726,890.644531 753.150757,889.075989 756.733154,889.109863 
	C762.215637,889.161804 767.700317,889.110718 773.182495,889.013611 
	C776.250610,888.959351 777.684326,889.986389 777.540771,893.397888 
	C777.405640,896.611084 776.420654,897.940918 773.087708,897.535583 
	C770.626648,897.236145 768.107422,897.431152 765.615112,897.367737 
	C763.026733,897.301880 760.946655,897.693176 761.080933,901.070251 
	C761.209717,904.309143 763.261230,904.777405 765.833801,904.745850 
	C767.828186,904.721375 769.826782,904.840149 771.817322,904.753540 
	C774.934753,904.617981 775.865295,906.359497 775.866455,909.103638 
	C775.867554,911.850281 774.427856,912.993286 771.819397,912.979675 
	C769.990906,912.970093 768.161621,912.957153 766.333984,913.001099 
	C763.836121,913.061096 761.018982,912.754395 761.083435,916.556580 
	C761.142334,920.031494 763.740173,919.795288 766.081909,919.836304 
	C768.741089,919.882935 771.401123,919.880432 774.060791,919.899231 
	C776.963013,919.919739 778.172729,921.381836 778.195862,924.275269 
	C778.219971,927.281250 776.902344,928.488525 773.974182,928.381897 
	C771.151794,928.279114 768.322815,928.358276 765.000610,928.356567 
z"/>
<path fill="#000000" opacity="1.000000" stroke="none" 
	d="
M598.384155,917.727783 
	C602.271118,921.765259 606.938293,919.473206 611.189636,919.784485 
	C614.743713,920.044678 616.473816,921.124451 616.106079,924.860596 
	C615.895630,926.999573 615.104980,928.298889 612.767273,928.295105 
	C606.110229,928.284424 599.452942,928.279297 592.796143,928.328430 
	C589.834167,928.350281 589.111328,926.452087 589.137939,924.081116 
	C589.253357,913.782410 589.464844,903.484802 589.601440,893.186218 
	C589.630554,890.993591 590.472168,889.692688 592.808838,889.691101 
	C599.132568,889.686829 605.456360,889.686768 611.780090,889.678467 
	C614.863037,889.674438 615.111145,891.767944 615.129517,894.104004 
	C615.149109,896.592773 613.992676,897.802551 611.483948,897.710205 
	C608.658936,897.606201 605.830627,897.409973 603.008362,897.470703 
	C600.579285,897.522949 598.336548,897.954407 598.263123,901.260193 
	C598.184082,904.820984 600.534363,904.741455 602.966980,904.726929 
	C604.964111,904.715027 606.963562,904.789124 608.957947,904.715942 
	C611.731079,904.614075 613.279846,905.487000 613.352478,908.648621 
	C613.430298,912.036133 611.784668,913.054138 608.800476,913.020142 
	C606.637939,912.995544 604.472900,913.139221 602.311401,913.092896 
	C599.361023,913.029724 597.946716,914.309143 598.384155,917.727783 
z"/>
<path fill="#000000" opacity="1.000000" stroke="none" 
	d="
M926.712646,912.938721 
	C924.431580,912.971436 922.598999,912.997314 920.766418,913.021912 
	C918.361511,913.054199 917.046570,914.091980 917.138245,916.678040 
	C917.221924,919.039001 918.515991,919.885742 920.672791,919.890747 
	C923.672058,919.897644 926.671265,919.918762 929.670532,919.940796 
	C932.180176,919.959229 934.303833,920.229614 934.269531,923.659180 
	C934.238831,926.721313 933.275940,928.318115 929.952942,928.265869 
	C923.956543,928.171570 917.955811,928.234436 911.958862,928.340576 
	C909.139404,928.390442 908.076965,926.995300 908.074768,924.378418 
	C908.066101,914.213989 908.064941,904.049316 908.000793,893.885193 
	C907.980469,890.665833 909.502625,889.506531 912.632446,889.585999 
	C918.294617,889.729736 923.964050,889.708984 929.627869,889.610474 
	C932.478516,889.560852 934.042908,890.466675 933.949585,893.588257 
	C933.856384,896.704102 932.158875,897.514709 929.385681,897.398926 
	C926.558167,897.280823 923.720459,897.434448 920.888672,897.383728 
	C918.456909,897.340210 917.198547,898.268616 917.151489,900.880066 
	C917.101562,903.649597 918.249329,904.873596 921.006836,904.765686 
	C923.003174,904.687561 925.008911,904.838440 927.004211,904.749023 
	C929.896179,904.619446 931.875916,905.353271 931.953613,908.769165 
	C932.032104,912.218994 930.052795,913.036743 926.712646,912.938721 
z"/>
<path fill="#000000" opacity="1.000000" stroke="none" 
	d="
M275.101807,891.707642 
	C279.759308,903.819153 284.246979,915.561096 288.864441,927.642639 
	C283.550598,928.729858 279.427277,929.483704 277.891113,923.416138 
	C277.027496,920.005249 273.985352,920.187744 271.319275,920.368896 
	C268.031921,920.592102 263.652893,918.880737 262.225922,923.423523 
	C260.377472,929.307983 256.454102,928.711182 252.216324,927.927551 
	C251.213776,926.256042 252.018814,925.093750 252.484802,923.868103 
	C256.213654,914.061462 259.922394,904.247131 263.644470,894.437866 
	C265.699982,889.020630 269.559387,887.965088 275.101807,891.707642 
M267.408264,912.388550 
	C269.342712,912.606812 271.319946,913.164185 273.300629,911.559570 
	C273.036957,908.408203 272.124939,905.508179 269.604614,902.635620 
	C268.409729,906.064331 266.206848,908.554138 267.408264,912.388550 
z"/>
<path fill="#000000" opacity="1.000000" stroke="none" 
	d="
M109.689346,922.277405 
	C103.075661,918.343079 96.807838,920.030273 93.149017,926.256836 
	C90.838936,930.188110 87.319336,927.851807 84.434769,928.107788 
	C83.337914,926.751953 83.887505,925.656799 84.301727,924.589600 
	C88.269035,914.368347 92.344139,904.187378 96.169678,893.913513 
	C97.338165,890.775330 99.099594,889.623169 102.441193,889.590393 
	C105.975975,889.555786 107.370613,891.226807 108.461479,894.229919 
	C111.863976,903.596497 115.503403,912.876953 119.023895,922.200989 
	C119.656792,923.877075 120.700195,925.523376 119.797600,927.438843 
	C113.262444,929.387329 112.334167,928.937927 109.689346,922.277405 
M103.178108,912.594116 
	C105.488953,912.452515 105.912865,911.117126 105.229805,909.209045 
	C104.422127,906.952698 103.524033,904.728699 102.168274,901.196045 
	C100.839279,905.657043 98.938858,908.499084 98.884445,912.267517 
	C100.230820,912.394226 101.341515,912.498779 103.178108,912.594116 
z"/>
<path fill="#000000" opacity="1.000000" stroke="none" 
	d="
M523.968506,920.054077 
	C527.301575,911.305847 530.521118,902.925781 533.657410,894.514648 
	C534.690247,891.744629 535.670227,889.484558 539.444092,889.550964 
	C542.946289,889.612549 544.949097,890.728271 546.175110,894.062195 
	C549.960999,904.357544 553.957397,914.575562 557.873535,924.822998 
	C558.236877,925.773621 558.440247,926.719910 557.767151,927.941345 
	C553.372070,928.867310 549.309509,929.189148 547.885803,923.274414 
	C547.331238,920.970703 545.560303,920.282532 543.307373,920.314636 
	C538.000122,920.390442 532.448914,918.885559 530.138367,926.509094 
	C529.037476,930.141541 524.700806,928.041077 521.568481,928.008179 
	C520.935181,924.875732 523.230774,922.886658 523.968506,920.054077 
M542.796326,909.219971 
	C542.017395,906.950500 541.238525,904.681091 540.072266,901.283081 
	C538.793579,904.480347 537.981567,906.574341 537.119263,908.647278 
	C536.381287,910.421448 536.307800,912.113586 538.624512,912.359863 
	C540.418091,912.550476 543.316650,913.815796 542.796326,909.219971 
z"/>
<path fill="#000000" opacity="1.000000" stroke="none" 
	d="
M871.640442,911.847778 
	C871.631042,905.542358 871.805786,899.709229 871.574585,893.892151 
	C871.424072,890.104736 873.458069,889.509460 876.495300,889.407166 
	C879.780579,889.296509 880.353760,891.125977 880.305908,893.834900 
	C880.220581,898.661011 880.264160,903.489746 880.289001,908.317261 
	C880.297546,909.979858 880.193176,911.686096 880.520203,913.295166 
	C881.265381,916.961426 882.837280,920.044312 887.303101,919.870972 
	C891.508118,919.707764 893.164551,916.675354 893.365662,913.179077 
	C893.738098,906.707153 893.718933,900.200745 893.569458,893.715454 
	C893.482727,889.952026 895.515991,889.204102 898.561035,889.286438 
	C900.935791,889.350647 902.261902,890.383667 902.238647,892.940613 
	C902.173645,900.097595 902.553101,907.281067 902.062012,914.406189 
	C901.402893,923.968506 895.055481,929.546692 886.050720,929.268372 
	C877.249634,928.996338 871.962585,922.775391 871.640442,911.847778 
z"/>
<path fill="#000000" opacity="1.000000" stroke="none" 
	d="
M376.310425,897.367798 
	C372.822845,897.118286 371.193634,898.194885 371.321991,901.588806 
	C371.446503,904.880249 373.610352,904.717896 375.824249,904.726624 
	C377.819641,904.734497 379.818726,904.814453 381.809570,904.721008 
	C384.814728,904.580017 386.427094,905.529175 386.418884,908.935913 
	C386.410278,912.504456 384.395508,913.034180 381.602448,913.008057 
	C379.275482,912.986267 376.947723,913.022034 374.620605,913.052002 
	C372.362274,913.081116 371.367584,914.239197 371.343170,916.498535 
	C371.318207,918.804688 372.341492,919.870850 374.618591,919.865112 
	C378.110260,919.856323 381.602661,919.930908 385.093445,919.879395 
	C388.035980,919.835999 389.261261,921.177368 389.241638,924.126343 
	C389.222504,927.004395 388.210968,928.406006 385.144135,928.348572 
	C378.993896,928.233276 372.839142,928.269958 366.687622,928.349731 
	C363.999054,928.384583 362.705933,927.328552 362.719818,924.553101 
	C362.771393,914.243896 362.793488,903.934082 362.730438,893.625122 
	C362.711792,890.580811 364.145844,889.538269 367.012177,889.585022 
	C372.830627,889.680054 378.652710,889.704834 384.470825,889.609009 
	C387.639099,889.556824 388.396332,891.178528 388.351776,893.980591 
	C388.305176,896.910034 386.852264,897.676941 384.224762,897.497681 
	C381.740204,897.328186 379.239105,897.400757 376.310425,897.367798 
z"/>
<path fill="#000000" opacity="1.000000" stroke="none" 
	d="
M679.207397,892.255371 
	C679.289612,898.553894 679.335083,904.380188 679.325745,910.206421 
	C679.322510,912.229614 679.525391,914.178223 680.426819,916.029053 
	C681.619385,918.477783 683.381287,920.056763 686.254639,919.909302 
	C689.311157,919.752380 691.179321,918.086121 691.859314,915.140747 
	C693.454041,908.232910 692.428894,901.213928 692.624939,894.248596 
	C692.707947,891.301453 693.295959,889.537964 696.768433,889.558716 
	C699.884338,889.577332 701.381287,890.552002 701.315796,893.858887 
	C701.180603,900.681885 701.517334,907.523071 701.160400,914.330566 
	C700.685608,923.384094 694.252258,929.333191 685.639343,929.249634 
	C677.018188,929.166016 671.017822,923.065369 670.750977,913.810425 
	C670.563904,907.322937 670.658447,900.825806 670.715210,894.333801 
	C670.730286,892.600952 670.214294,890.217834 672.738647,889.885498 
	C674.996948,889.588013 677.825562,888.476501 679.207397,892.255371 
z"/>
<path fill="#000000" opacity="1.000000" stroke="none" 
	d="
M215.401947,889.030396 
	C222.577911,891.126831 223.342712,892.113586 221.773010,896.331421 
	C220.858200,898.789490 219.648392,900.044067 216.967285,898.524719 
	C214.557388,897.158997 211.910858,896.949097 209.214111,897.279419 
	C207.611069,897.475769 206.316666,898.197449 205.976257,899.909973 
	C205.623718,901.683777 206.682144,902.869690 208.135345,903.427979 
	C210.766586,904.438843 213.513580,905.143494 216.185699,906.053894 
	C220.779602,907.619324 224.030396,910.322266 224.302933,915.619751 
	C224.597672,921.348999 222.408752,925.235840 217.253464,927.635986 
	C210.967834,930.562439 204.949280,929.301880 199.029648,926.393677 
	C195.467758,924.643860 196.884003,922.140198 197.846313,919.636230 
	C198.967728,916.718201 200.803802,917.803711 202.684113,918.673767 
	C205.581894,920.014465 208.581528,921.055298 211.839111,920.560425 
	C213.537613,920.302368 215.190811,919.605652 215.435181,917.647522 
	C215.668091,915.781067 214.070343,915.086182 212.686462,914.565430 
	C210.354904,913.688049 207.920654,913.085144 205.582993,912.222168 
	C199.321213,909.910522 196.296768,905.597595 196.803802,899.861023 
	C197.313599,894.093079 201.555725,889.832092 208.017120,888.949341 
	C210.297104,888.637756 212.659683,888.930664 215.401947,889.030396 
z"/>
<path fill="#000000" opacity="1.000000" stroke="none" 
	d="
M405.951202,904.369019 
	C405.260895,898.706848 405.831055,893.881409 411.061005,891.006104 
	C417.110931,887.679993 423.367981,887.875488 429.214783,891.130005 
	C433.465027,893.495667 430.214264,896.468567 429.061920,899.379761 
	C425.591492,899.180908 422.809387,896.697815 419.348389,897.169800 
	C417.255951,897.455139 415.159637,897.744263 414.635559,900.061279 
	C414.037628,902.704956 416.313354,903.384766 418.171539,904.064880 
	C420.667725,904.978516 423.234314,905.697632 425.751221,906.557190 
	C430.138458,908.055298 432.669098,911.227173 433.086761,915.745605 
	C433.518188,920.413818 431.599487,924.204651 427.592438,926.761719 
	C422.115753,930.256531 413.019806,929.907593 407.583832,926.257629 
	C404.403778,924.122437 405.752869,921.691162 406.831024,919.258728 
	C408.143219,916.298157 410.026947,917.934631 411.762024,918.776550 
	C414.341675,920.028381 417.003113,920.935547 419.922821,920.640808 
	C421.870117,920.444275 423.689514,919.679016 423.994415,917.603088 
	C424.300354,915.520142 422.373871,914.901428 420.824188,914.343506 
	C418.635468,913.555481 416.382935,912.946777 414.169586,912.224731 
	C410.339203,910.975098 407.355896,908.784668 405.951202,904.369019 
z"/>
<path fill="#000000" opacity="1.000000" stroke="none" 
	d="
M140.738861,905.995972 
	C147.803879,908.954285 150.039734,912.371399 149.275574,918.605774 
	C148.625748,923.907288 144.221420,928.060181 138.032196,929.035583 
	C134.521271,929.588867 131.072189,929.151428 127.716393,927.936951 
	C121.093758,925.540039 120.668648,924.305176 124.454414,917.584412 
	C127.823120,917.982666 130.677292,920.455383 134.196945,920.584595 
	C136.750580,920.678223 139.730499,920.878540 140.310852,917.776489 
	C140.835861,914.970276 137.818756,914.714111 135.914551,913.943970 
	C134.223938,913.260193 132.424301,912.851746 130.701614,912.240540 
	C124.568970,910.064514 121.441048,905.879395 121.857750,900.474670 
	C122.306808,894.650208 126.494743,890.101929 132.630524,889.015381 
	C136.649429,888.303711 140.538452,888.952942 144.371429,890.402771 
	C147.716156,891.667969 147.911316,893.719421 146.809921,896.714111 
	C145.622314,899.943115 143.739014,899.607483 141.354141,898.339111 
	C139.057571,897.117493 136.575729,896.937317 134.065247,897.396790 
	C132.511978,897.681152 131.196945,898.474365 130.934219,900.187012 
	C130.663193,901.953613 131.771683,903.067017 133.244904,903.616028 
	C135.576035,904.484802 137.990662,905.129578 140.738861,905.995972 
z"/>
<path fill="#000000" opacity="1.000000" stroke="none" 
	d="
M171.160248,889.388489 
	C173.615280,890.166077 176.002182,890.501892 176.971146,892.676208 
	C177.858566,894.667480 176.877914,896.642639 175.664581,898.254761 
	C174.504517,899.795959 172.951462,899.018005 171.579330,898.413391 
	C169.561111,897.524109 167.476273,897.109375 165.269470,897.197449 
	C163.097260,897.284241 161.158249,897.900146 160.743546,900.265137 
	C160.330566,902.620239 162.317078,903.355469 164.047592,903.953491 
	C166.401840,904.766846 168.833862,905.352173 171.205536,906.118835 
	C175.924393,907.644226 178.870605,910.722717 179.227325,915.823486 
	C179.591568,921.032104 177.259140,924.822083 172.705582,927.212219 
	C166.365341,930.540100 160.058319,929.706665 154.102936,926.352417 
	C149.640472,923.839111 152.806534,920.747131 153.801468,917.789062 
	C156.860596,917.502747 158.855835,919.765259 161.443008,920.244324 
	C163.437485,920.613647 165.405991,920.899109 167.371353,920.451172 
	C168.871262,920.109314 170.290726,919.324585 170.423096,917.579224 
	C170.543747,915.988403 169.233826,915.258728 167.976196,914.788391 
	C165.486023,913.857056 162.931122,913.100342 160.429092,912.198975 
	C153.900269,909.847107 151.208832,906.029968 151.731827,899.952209 
	C152.221512,894.261414 156.103745,890.182800 162.336090,889.004272 
	C165.133728,888.475281 167.967422,888.523987 171.160248,889.388489 
z"/>
<path fill="#000000" opacity="1.000000" stroke="none" 
	d="
M492.897430,929.222290 
	C480.739044,928.385315 473.100098,919.436523 473.996490,907.589294 
	C474.879059,895.924561 482.668121,888.258240 493.142090,888.759277 
	C496.546295,888.922119 499.801239,889.797241 502.459259,891.913940 
	C504.204559,893.303833 507.354767,894.625916 504.815033,897.784851 
	C502.880035,900.191589 501.059601,902.143372 497.467194,899.380920 
	C493.099518,896.022156 489.041046,896.728516 485.964294,900.386902 
	C482.386261,904.641479 482.295563,913.178772 485.785858,917.176697 
	C488.586670,920.384827 493.712128,921.177063 497.544586,918.217041 
	C500.759430,915.734009 502.492157,916.795166 504.433075,919.470764 
	C506.619476,922.485107 504.499817,924.051147 502.457367,925.576965 
	C499.755402,927.595337 496.814178,929.120544 492.897430,929.222290 
z"/>
<path fill="#000000" opacity="1.000000" stroke="none" 
	d="
M355.937134,898.871277 
	C353.964569,901.231689 352.390686,900.975342 350.161133,899.504517 
	C345.021179,896.113892 341.226471,896.688110 337.847015,900.808716 
	C334.259644,905.182983 334.362640,912.814758 338.065460,916.986572 
	C341.256653,920.581970 346.051727,921.144165 350.562897,917.862244 
	C353.467438,915.749084 354.969818,917.040588 356.777954,919.110718 
	C358.880188,921.517517 357.895630,923.274109 355.893280,925.011108 
	C350.931885,929.315125 345.306061,930.364075 339.146973,928.301514 
	C332.185913,925.970337 328.307953,920.902466 326.942749,913.830078 
	C324.171295,899.472778 333.015686,887.985168 346.184326,888.738037 
	C349.813354,888.945557 352.924927,890.409973 355.775787,892.516785 
	C358.254761,894.348572 358.811127,896.389954 355.937134,898.871277 
z"/>
<path fill="#000000" opacity="1.000000" stroke="none" 
	d="
M244.015015,905.128418 
	C244.019394,911.423279 243.965530,917.240112 244.061768,923.054382 
	C244.115601,926.307556 243.485519,928.388489 239.453842,928.413635 
	C235.521881,928.438110 234.678452,926.644714 234.745895,923.237549 
	C234.883972,916.261230 234.663818,909.277161 234.841873,902.302673 
	C234.932053,898.770813 233.973587,896.959290 230.066254,897.388000 
	C227.394073,897.681274 224.640549,897.853027 224.683670,893.639587 
	C224.724655,889.634521 227.204422,889.632202 230.038254,889.650146 
	C236.850754,889.693176 243.664093,889.712891 250.476242,889.650574 
	C253.742157,889.620728 254.240417,891.560242 254.215714,894.211792 
	C254.191147,896.846497 252.863892,897.555969 250.436768,897.592468 
	C244.076309,897.688293 244.077499,897.767700 244.015015,905.128418 
z"/>
<path fill="#000000" opacity="1.000000" stroke="none" 
	d="
M586.243652,923.148193 
	C586.638306,926.904053 585.460876,928.529785 581.852783,928.397949 
	C576.380981,928.197998 570.894531,928.245667 565.418518,928.371521 
	C562.324036,928.442688 560.817993,927.382263 560.850891,924.092102 
	C560.950378,914.131409 560.961853,904.168640 560.874573,894.207886 
	C560.844910,890.817932 562.204407,889.581909 565.613586,889.501892 
	C569.290894,889.415466 570.191040,891.107788 570.152527,894.317993 
	C570.070862,901.124084 570.326477,907.937866 570.099854,914.737122 
	C569.967712,918.704346 571.498718,920.163696 575.338867,919.838989 
	C577.645935,919.643982 579.985046,919.790100 582.308533,919.839417 
	C584.244995,919.880432 586.010803,920.234863 586.243652,923.148193 
z"/>
<path fill="#000000" opacity="1.000000" stroke="none" 
	d="
M182.972473,922.797424 
	C182.975372,913.011841 183.009918,903.703247 182.946716,894.395325 
	C182.926285,891.386841 183.436951,889.158508 187.195236,889.164185 
	C190.853500,889.169739 192.140869,890.878052 192.103134,894.401306 
	C191.999893,904.040466 192.062027,913.681763 192.118408,923.321838 
	C192.136215,926.365845 191.502609,928.351318 187.734573,928.397827 
	C183.888245,928.445251 182.652878,926.754333 182.972473,922.797424 
z"/>
<path fill="#000000" opacity="1.000000" stroke="none" 
	d="
M509.758362,900.058777 
	C509.754730,898.071899 509.772186,896.573486 509.747894,895.075684 
	C509.700226,892.137207 509.490570,889.411438 513.912964,889.416321 
	C518.068604,889.420898 519.381531,891.019226 519.284302,895.071289 
	C519.056580,904.554138 519.134338,914.047119 519.248840,923.533997 
	C519.288086,926.787476 518.388550,928.433655 514.759827,928.446838 
	C511.144104,928.459961 509.631744,927.222595 509.708221,923.518250 
	C509.866302,915.864258 509.758820,908.204712 509.758362,900.058777 
z"/>
<path fill="#000000" opacity="1.000000" stroke="none" 
	d="
M817.093994,916.123779 
	C817.434509,908.338928 817.992676,901.031799 817.270142,893.714111 
	C816.972229,890.697449 818.383728,889.548889 821.357849,889.590515 
	C824.172058,889.629883 826.271179,889.980713 826.241699,893.551697 
	C826.156616,903.867188 826.173462,914.183960 826.216125,924.499939 
	C826.228149,927.408630 825.056946,928.854614 822.037537,928.651733 
	C819.380798,928.473145 816.970520,928.143311 817.065857,924.585205 
	C817.137146,921.924988 817.085388,919.261475 817.093994,916.123779 
z"/>
<path fill="#000000" opacity="1.000000" stroke="none" 
	d="
M767.874146,886.138000 
	C765.373291,888.350159 763.047058,888.761047 760.488831,887.091614 
	C762.838501,880.246094 766.405457,878.035767 773.741089,878.921021 
	C773.409180,882.523193 769.806335,883.464417 767.874146,886.138000 
z"/>
</svg>